<?xml version="1.0" encoding="UTF-8"?>
<!DOCTYPE svg PUBLIC "-//W3C//DTD SVG 1.1//EN" "http://www.w3.org/Graphics/SVG/1.1/DTD/svg11.dtd">
<svg xmlns="http://www.w3.org/2000/svg" version="1.1" width="860px" height="832px" style="shape-rendering:geometricPrecision; text-rendering:geometricPrecision; image-rendering:optimizeQuality; fill-rule:evenodd; clip-rule:evenodd" xmlns:xlink="http://www.w3.org/1999/xlink">
<g><path style="opacity:0.975" fill="#acacac" d="M 564.5,243.5 C 558.5,220.504 548.5,199.504 534.5,180.5C 556.249,160.253 577.582,139.42 598.5,118C 613.833,106.667 629.167,106.667 644.5,118C 656.719,132.233 657.552,147.066 647,162.5C 619.916,190.086 592.416,217.086 564.5,243.5 Z"/></g>
<g><path style="opacity:0.98" fill="#acacac" d="M 745.5,109.5 C 774.59,108.753 787.424,122.753 784,151.5C 781.839,156.492 779.172,161.159 776,165.5C 734.444,207.724 692.277,249.224 649.5,290C 631.063,298.766 615.896,294.933 604,278.5C 597.394,265.557 598.394,253.223 607,241.5C 647.472,200.028 688.306,158.861 729.5,118C 734.493,114.339 739.827,111.506 745.5,109.5 Z"/></g>
<g><path style="opacity:1" fill="#303030" d="M 534.5,180.5 C 548.5,199.504 558.5,220.504 564.5,243.5C 572.814,273.263 572.481,302.929 563.5,332.5C 562.115,333.302 562.282,333.969 564,334.5C 564.765,334.43 565.265,334.097 565.5,333.5C 592.624,325.688 619.957,324.688 647.5,330.5C 671.289,335.882 693.289,345.549 713.5,359.5C 720.919,364.745 727.919,370.578 734.5,377C 739.37,381.702 744.037,386.535 748.5,391.5C 748.427,393.027 749.094,394.027 750.5,394.5C 759.519,404.265 759.685,414.265 751,424.5C 737.249,439.597 721.749,452.43 704.5,463C 665.323,482.454 625.656,483.454 585.5,466C 580.097,463.308 575.097,460.142 570.5,456.5C 570.027,455.094 569.027,454.427 567.5,454.5C 555,445.902 543.666,435.902 533.5,424.5C 512.833,403.167 491.833,382.167 470.5,361.5C 420.26,318.211 406.094,265.211 428,202.5C 436.777,183.599 448.944,167.266 464.5,153.5C 468.1,151.57 471.1,148.903 473.5,145.5C 480.598,139.11 488.598,137.943 497.5,142C 511.748,153.079 524.081,165.912 534.5,180.5 Z"/></g>
<g><path style="opacity:1" fill="#6b6b6b" d="M 473.5,145.5 C 471.1,148.903 468.1,151.57 464.5,153.5C 466.9,150.097 469.9,147.43 473.5,145.5 Z"/></g>
<g><path style="opacity:0.975" fill="#acacac" d="M 713.5,359.5 C 693.289,345.549 671.289,335.882 647.5,330.5C 675.916,303.586 703.916,276.086 731.5,248C 746.415,237.799 761.081,238.132 775.5,249C 788.211,264.137 788.711,279.637 777,295.5C 755.632,316.701 734.465,338.035 713.5,359.5 Z"/></g>
<g><path style="opacity:1" fill="#303030" d="M 429.5,401.5 C 432.046,425.314 430.379,448.814 424.5,472C 435.049,470.036 445.716,468.369 456.5,467C 468.526,466.251 480.526,466.418 492.5,467.5C 526.888,471.035 557.222,483.868 583.5,506C 593.333,515.167 603.167,524.333 613,533.5C 621.167,547.376 619,559.543 606.5,570C 597.979,577.098 589.646,584.431 581.5,592C 539.843,620.783 495.51,625.449 448.5,606C 440.094,602.142 432.427,597.308 425.5,591.5C 425.027,590.094 424.027,589.427 422.5,589.5C 412.84,581.173 403.506,572.506 394.5,563.5C 373.833,543.5 353.5,523.167 333.5,502.5C 333.5,501.833 333.167,501.5 332.5,501.5C 325.869,494.368 319.036,487.368 312,480.5C 278.144,438.525 270.811,392.191 290,341.5C 292.687,335.448 295.854,329.781 299.5,324.5C 300.906,324.027 301.573,323.027 301.5,321.5C 304.498,316.179 307.998,311.179 312,306.5C 319.167,298 327,290.167 335.5,283C 345.001,278.124 354.335,278.458 363.5,284C 380.218,300.374 395.051,318.207 408,337.5C 419.458,357.374 426.625,378.707 429.5,401.5 Z"/></g>
<g><path style="opacity:0.655" fill="#828282" d="M 301.5,321.5 C 301.573,323.027 300.906,324.027 299.5,324.5C 299.427,322.973 300.094,321.973 301.5,321.5 Z"/></g>
<g><path style="opacity:0.302" fill="#a1a1a1" d="M 563.5,332.5 C 563.842,333.338 564.508,333.672 565.5,333.5C 565.265,334.097 564.765,334.43 564,334.5C 562.282,333.969 562.115,333.302 563.5,332.5 Z"/></g>
<g><path style="opacity:0.992" fill="#ababab" d="M 470.5,361.5 C 491.833,382.167 512.833,403.167 533.5,424.5C 518.752,437.745 504.419,451.578 490.5,466C 491.416,466.278 492.082,466.778 492.5,467.5C 480.526,466.418 468.526,466.251 456.5,467C 445.716,468.369 435.049,470.036 424.5,472C 430.379,448.814 432.046,425.314 429.5,401.5C 443.802,388.865 457.469,375.531 470.5,361.5 Z"/></g>
<g><path style="opacity:0.827" fill="#898989" d="M 748.5,391.5 C 749.906,391.973 750.573,392.973 750.5,394.5C 749.094,394.027 748.427,393.027 748.5,391.5 Z"/></g>
<g><path style="opacity:1" fill="#303030" d="M 289.5,538.5 C 293.244,563.205 291.578,587.538 284.5,611.5C 285,611.833 285.5,612.167 286,612.5C 309.502,606.536 333.336,604.869 357.5,607.5C 390.103,611.805 419.103,624.305 444.5,645C 454.637,654.136 464.47,663.636 474,673.5C 479.582,682.314 479.915,691.314 475,700.5C 431.622,753.513 377.456,769.013 312.5,747C 305.281,743.898 298.614,740.064 292.5,735.5C 292.027,734.094 291.027,733.427 289.5,733.5C 284.764,730.938 280.431,727.771 276.5,724C 269.298,716.631 261.965,709.464 254.5,702.5C 254.5,701.833 254.167,701.5 253.5,701.5C 233.167,680.5 212.5,659.833 191.5,639.5C 175.83,625.338 162.997,609.005 153,590.5C 129.669,534.818 138.003,484.484 178,439.5C 184.236,432.593 191.069,426.427 198.5,421C 207.733,417.1 216.4,418.1 224.5,424C 241.826,439.551 256.659,457.051 269,476.5C 280.135,495.765 286.969,516.431 289.5,538.5 Z"/></g>
<g><path style="opacity:0.655" fill="#838383" d="M 567.5,454.5 C 569.027,454.427 570.027,455.094 570.5,456.5C 568.973,456.573 567.973,455.906 567.5,454.5 Z"/></g>
<g><path style="opacity:0.992" fill="#acacac" d="M 332.5,501.5 C 333.167,501.5 333.5,501.833 333.5,502.5C 353.5,523.167 373.833,543.5 394.5,563.5C 393.761,563.369 393.094,563.536 392.5,564C 378.471,577.695 364.804,591.695 351.5,606C 353.708,606.191 355.708,606.691 357.5,607.5C 333.336,604.869 309.502,606.536 286,612.5C 285.5,612.167 285,611.833 284.5,611.5C 291.578,587.538 293.244,563.205 289.5,538.5C 290.268,539.263 290.768,540.263 291,541.5C 304.419,527.578 318.252,514.245 332.5,501.5 Z"/></g>
<g><path style="opacity:0.647" fill="#848484" d="M 422.5,589.5 C 424.027,589.427 425.027,590.094 425.5,591.5C 423.973,591.573 422.973,590.906 422.5,589.5 Z"/></g>
<g><path style="opacity:0.987" fill="#acacac" d="M 191.5,639.5 C 212.5,659.833 233.167,680.5 253.5,701.5C 254.167,701.5 254.5,701.833 254.5,702.5C 222.007,735.826 189.007,768.66 155.5,801C 135.775,812.663 116.775,811.496 98.5,797.5C 82.1789,777.503 81.3455,756.836 96,735.5C 128.035,703.632 159.868,671.632 191.5,639.5 Z"/></g>
<g><path style="opacity:0.655" fill="#838383" d="M 289.5,733.5 C 291.027,733.427 292.027,734.094 292.5,735.5C 290.973,735.573 289.973,734.906 289.5,733.5 Z"/></g>
</svg>
