<?xml version="1.0" encoding="UTF-8"?>
<!DOCTYPE svg PUBLIC "-//W3C//DTD SVG 1.1//EN" "http://www.w3.org/Graphics/SVG/1.1/DTD/svg11.dtd">
<svg xmlns="http://www.w3.org/2000/svg" version="1.1" width="860px" height="832px" style="shape-rendering:geometricPrecision; text-rendering:geometricPrecision; image-rendering:optimizeQuality; fill-rule:evenodd; clip-rule:evenodd" xmlns:xlink="http://www.w3.org/1999/xlink">
<g><path style="opacity:0.975" fill="#acacac" d="M 564.5,243.5 C 563.89,242.609 563.557,241.609 563.5,240.5C 560.526,235.176 558.526,229.842 557.5,224.5C 556.169,217.816 553.502,211.816 549.5,206.5C 547.992,204.819 546.992,202.819 546.5,200.5C 545.617,197.296 543.95,194.629 541.5,192.5C 541.25,190.326 540.25,188.659 538.5,187.5C 538.262,185.596 537.262,184.262 535.5,183.5C 534.596,182.791 534.263,181.791 534.5,180.5C 556.249,160.253 577.582,139.42 598.5,118C 613.833,106.667 629.167,106.667 644.5,118C 656.719,132.233 657.552,147.066 647,162.5C 619.916,190.086 592.416,217.086 564.5,243.5 Z"/></g>
<g><path style="opacity:0.98" fill="#acacac" d="M 745.5,109.5 C 774.59,108.753 787.424,122.753 784,151.5C 781.839,156.492 779.172,161.159 776,165.5C 734.444,207.724 692.277,249.224 649.5,290C 631.063,298.766 615.896,294.933 604,278.5C 597.394,265.557 598.394,253.223 607,241.5C 647.472,200.028 688.306,158.861 729.5,118C 734.493,114.339 739.827,111.506 745.5,109.5 Z"/></g>
<g><path style="opacity:0.993" fill="#ac900f" d="M 534.5,180.5 C 534.263,181.791 534.596,182.791 535.5,183.5C 535.738,185.404 536.738,186.738 538.5,187.5C 538.75,189.674 539.75,191.341 541.5,192.5C 542.383,195.704 544.05,198.371 546.5,200.5C 546.992,202.819 547.992,204.819 549.5,206.5C 551.99,212.661 554.657,218.661 557.5,224.5C 558.526,229.842 560.526,235.176 563.5,240.5C 562.876,240.917 562.543,241.584 562.5,242.5C 562.747,243.713 563.414,244.38 564.5,244.5C 572.569,274.206 572.235,303.873 563.5,333.5C 591.618,325.728 619.951,324.728 648.5,330.5C 649.99,332.28 651.99,332.946 654.5,332.5C 659.546,334.767 664.879,336.434 670.5,337.5C 679.764,341.796 689.098,346.13 698.5,350.5C 698.973,351.906 699.973,352.573 701.5,352.5C 701.973,353.906 702.973,354.573 704.5,354.5C 704.973,355.906 705.973,356.573 707.5,356.5C 709.34,358.669 711.674,360.002 714.5,360.5C 717.621,362.448 720.621,364.615 723.5,367C 732.637,375.136 741.47,383.636 750,392.5C 758.997,403.051 759.33,413.717 751,424.5C 737.249,439.597 721.749,452.43 704.5,463C 638.081,491.644 581.081,478.81 533.5,424.5C 533.5,424.167 533.5,423.833 533.5,423.5C 520.088,408.586 506.088,394.086 491.5,380C 490.906,379.536 490.239,379.369 489.5,379.5C 484.452,373.785 479.119,368.452 473.5,363.5C 473.306,361.088 471.973,360.088 469.5,360.5C 415.764,312.658 403.931,255.992 434,190.5C 444.621,174.202 457.121,159.368 471.5,146C 482.167,137.333 492.833,137.333 503.5,146C 514.661,156.872 524.994,168.372 534.5,180.5 Z"/></g>
<g><path style="opacity:0.769" fill="#4d4735" d="M 535.5,183.5 C 537.262,184.262 538.262,185.596 538.5,187.5C 536.738,186.738 535.738,185.404 535.5,183.5 Z"/></g>
<g><path style="opacity:0.769" fill="#4a4531" d="M 538.5,187.5 C 540.25,188.659 541.25,190.326 541.5,192.5C 539.75,191.341 538.75,189.674 538.5,187.5 Z"/></g>
<g><path style="opacity:0.769" fill="#4c4734" d="M 541.5,192.5 C 543.95,194.629 545.617,197.296 546.5,200.5C 544.05,198.371 542.383,195.704 541.5,192.5 Z"/></g>
<g><path style="opacity:0.769" fill="#4d4835" d="M 549.5,206.5 C 553.502,211.816 556.169,217.816 557.5,224.5C 554.657,218.661 551.99,212.661 549.5,206.5 Z"/></g>
<g><path style="opacity:0.975" fill="#ababab" d="M 714.5,360.5 C 711.674,360.002 709.34,358.669 707.5,356.5C 707.027,355.094 706.027,354.427 704.5,354.5C 704.027,353.094 703.027,352.427 701.5,352.5C 701.027,351.094 700.027,350.427 698.5,350.5C 689.098,346.13 679.764,341.796 670.5,337.5C 665.669,334.67 660.335,333.003 654.5,332.5C 651.99,332.946 649.99,332.28 648.5,330.5C 676.299,303.202 703.965,275.702 731.5,248C 746.415,237.799 761.081,238.132 775.5,249C 788.211,264.137 788.711,279.637 777,295.5C 755.833,316.667 734.667,337.833 713.5,359C 714.056,359.383 714.389,359.883 714.5,360.5 Z"/></g>
<g><path style="opacity:0.769" fill="#55503f" d="M 563.5,240.5 C 563.557,241.609 563.89,242.609 564.5,243.5C 564.5,243.833 564.5,244.167 564.5,244.5C 563.414,244.38 562.747,243.713 562.5,242.5C 562.543,241.584 562.876,240.917 563.5,240.5 Z"/></g>
<g><path style="opacity:0.994" fill="#ac900f" d="M 429.5,400.5 C 430.551,414.625 430.551,428.958 429.5,443.5C 428.527,445.948 428.194,448.615 428.5,451.5C 427.419,454.627 426.753,457.96 426.5,461.5C 425.549,462.919 425.216,464.585 425.5,466.5C 424.388,468.599 423.721,470.933 423.5,473.5C 425.415,473.784 427.081,473.451 428.5,472.5C 428.833,472.5 429.167,472.5 429.5,472.5C 432.428,472.435 435.095,471.768 437.5,470.5C 441.387,470.354 445.054,469.687 448.5,468.5C 451.385,468.806 454.052,468.473 456.5,467.5C 468.376,467.6 480.043,467.6 491.5,467.5C 491.5,467.167 491.5,466.833 491.5,466.5C 526.15,470.665 556.816,483.832 583.5,506C 591.5,513.333 599.5,520.667 607.5,528C 622.275,542.283 621.942,556.283 606.5,570C 599.5,576.333 592.5,582.667 585.5,589C 543.208,620.654 497.541,626.321 448.5,606C 439.669,601.755 431.336,596.755 423.5,591C 413.63,581.627 403.63,572.46 393.5,563.5C 391.57,559.9 388.903,556.9 385.5,554.5C 375.22,542.552 364.22,531.219 352.5,520.5C 351.833,517.833 350.167,516.167 347.5,515.5C 342.833,511.167 338.167,506.833 333.5,502.5C 333.5,501.833 333.167,501.5 332.5,501.5C 325.869,494.368 319.036,487.368 312,480.5C 280.485,442.293 271.818,399.293 286,351.5C 294.335,329.846 306.668,310.846 323,294.5C 328.112,287.711 334.612,282.877 342.5,280C 350.045,278.544 357.045,279.877 363.5,284C 380.218,300.374 395.051,318.207 408,337.5C 419.251,357.085 426.417,378.085 429.5,400.5 Z"/></g>
<g><path style="opacity:1" fill="#625e52" d="M 654.5,332.5 C 660.335,333.003 665.669,334.67 670.5,337.5C 664.879,336.434 659.546,334.767 654.5,332.5 Z"/></g>
<g><path style="opacity:0.792" fill="#524e40" d="M 698.5,350.5 C 700.027,350.427 701.027,351.094 701.5,352.5C 699.973,352.573 698.973,351.906 698.5,350.5 Z"/></g>
<g><path style="opacity:0.769" fill="#4c4735" d="M 701.5,352.5 C 703.027,352.427 704.027,353.094 704.5,354.5C 702.973,354.573 701.973,353.906 701.5,352.5 Z"/></g>
<g><path style="opacity:0.769" fill="#4a4431" d="M 704.5,354.5 C 706.027,354.427 707.027,355.094 707.5,356.5C 705.973,356.573 704.973,355.906 704.5,354.5 Z"/></g>
<g><path style="opacity:0.753" fill="#5b5437" d="M 469.5,360.5 C 471.973,360.088 473.306,361.088 473.5,363.5C 472.5,362.833 471.5,362.167 470.5,361.5C 469.833,361.5 469.5,361.167 469.5,360.5 Z"/></g>
<g><path style="opacity:0.992" fill="#ababab" d="M 470.5,361.5 C 471.5,362.167 472.5,362.833 473.5,363.5C 479.119,368.452 484.452,373.785 489.5,379.5C 503.833,394.5 518.5,409.167 533.5,423.5C 533.5,423.833 533.5,424.167 533.5,424.5C 518.752,437.745 504.419,451.578 490.5,466C 490.728,466.399 491.062,466.565 491.5,466.5C 491.5,466.833 491.5,467.167 491.5,467.5C 479.693,466.22 468.026,466.22 456.5,467.5C 454.052,468.473 451.385,468.806 448.5,468.5C 444.542,468.251 440.876,468.918 437.5,470.5C 434.505,470.294 431.838,470.96 429.5,472.5C 429.167,472.5 428.833,472.5 428.5,472.5C 427.127,472.657 425.793,472.49 424.5,472C 425.406,470.301 425.739,468.467 425.5,466.5C 425.216,464.585 425.549,462.919 426.5,461.5C 427.222,461.082 427.722,460.416 428,459.5C 428.497,456.854 428.664,454.187 428.5,451.5C 428.194,448.615 428.527,445.948 429.5,443.5C 432.009,429.613 432.009,415.613 429.5,401.5C 443.802,388.865 457.469,375.531 470.5,361.5 Z"/></g>
<g><path style="opacity:0.753" fill="#4e4826" d="M 489.5,379.5 C 490.239,379.369 490.906,379.536 491.5,380C 506.088,394.086 520.088,408.586 533.5,423.5C 518.5,409.167 503.833,394.5 489.5,379.5 Z"/></g>
<g><path style="opacity:0.994" fill="#ac8f10" d="M 290.5,541.5 C 290.179,552.985 290.179,564.651 290.5,576.5C 290.5,576.833 290.5,577.167 290.5,577.5C 288.699,589.075 286.699,600.742 284.5,612.5C 292.112,612.042 299.446,610.709 306.5,608.5C 312.051,608.473 317.384,607.806 322.5,606.5C 332.683,606.852 342.683,606.852 352.5,606.5C 387.043,610.286 417.71,623.119 444.5,645C 454.637,654.136 464.47,663.636 474,673.5C 480.176,683.731 479.843,693.731 473,703.5C 460.562,717.11 446.729,728.944 431.5,739C 387.386,763.268 343.052,763.601 298.5,740C 293.328,736.915 288.328,733.581 283.5,730C 273.662,720.994 263.995,711.828 254.5,702.5C 254.5,702.167 254.5,701.833 254.5,701.5C 252.167,698.5 249.5,695.833 246.5,693.5C 229.421,674.918 211.754,656.752 193.5,639C 192.906,638.536 192.239,638.369 191.5,638.5C 141.134,594.035 127.967,540.368 152,477.5C 163.122,455.103 178.622,436.27 198.5,421C 206.324,417.498 213.99,417.832 221.5,422C 260.125,452.742 283.125,492.575 290.5,541.5 Z"/></g>
<g><path style="opacity:0.89" fill="#726f68" d="M 429.5,400.5 C 429.5,400.833 429.5,401.167 429.5,401.5C 432.009,415.613 432.009,429.613 429.5,443.5C 430.551,428.958 430.551,414.625 429.5,400.5 Z"/></g>
<g><path style="opacity:1" fill="#6f6c5e" d="M 428.5,451.5 C 428.664,454.187 428.497,456.854 428,459.5C 427.722,460.416 427.222,461.082 426.5,461.5C 426.753,457.96 427.419,454.627 428.5,451.5 Z"/></g>
<g><path style="opacity:0.753" fill="#534d32" d="M 456.5,467.5 C 468.026,466.22 479.693,466.22 491.5,467.5C 480.043,467.6 468.376,467.6 456.5,467.5 Z"/></g>
<g><path style="opacity:0.843" fill="#5a5440" d="M 425.5,466.5 C 425.739,468.467 425.406,470.301 424.5,472C 425.793,472.49 427.127,472.657 428.5,472.5C 427.081,473.451 425.415,473.784 423.5,473.5C 423.721,470.933 424.388,468.599 425.5,466.5 Z"/></g>
<g><path style="opacity:0.753" fill="#524b2f" d="M 448.5,468.5 C 445.054,469.687 441.387,470.354 437.5,470.5C 440.876,468.918 444.542,468.251 448.5,468.5 Z"/></g>
<g><path style="opacity:0.753" fill="#544d33" d="M 437.5,470.5 C 435.095,471.768 432.428,472.435 429.5,472.5C 431.838,470.96 434.505,470.294 437.5,470.5 Z"/></g>
<g><path style="opacity:0.992" fill="#acacac" d="M 332.5,501.5 C 333.167,501.5 333.5,501.833 333.5,502.5C 338.167,506.833 342.833,511.167 347.5,515.5C 348.833,517.5 350.5,519.167 352.5,520.5C 362.78,532.448 373.78,543.781 385.5,554.5C 388.903,556.9 391.57,559.9 393.5,563.5C 378.452,577.198 364.785,591.531 352.5,606.5C 342.683,606.852 332.683,606.852 322.5,606.5C 316.931,606.376 311.598,607.043 306.5,608.5C 299.482,609.37 292.482,610.37 285.5,611.5C 288.45,600.364 290.117,589.03 290.5,577.5C 290.5,577.167 290.5,576.833 290.5,576.5C 291.58,564.995 291.58,553.328 290.5,541.5C 303.965,528.535 317.299,515.369 330.5,502C 331.094,501.536 331.761,501.369 332.5,501.5 Z"/></g>
<g><path style="opacity:0.753" fill="#514a25" d="M 347.5,515.5 C 350.167,516.167 351.833,517.833 352.5,520.5C 350.5,519.167 348.833,517.5 347.5,515.5 Z"/></g>
<g><path style="opacity:0.753" fill="#564e2f" d="M 352.5,520.5 C 364.22,531.219 375.22,542.552 385.5,554.5C 373.78,543.781 362.78,532.448 352.5,520.5 Z"/></g>
<g><path style="opacity:0.753" fill="#5a543e" d="M 290.5,541.5 C 291.58,553.328 291.58,564.995 290.5,576.5C 290.179,564.651 290.179,552.985 290.5,541.5 Z"/></g>
<g><path style="opacity:0.906" fill="#625c48" d="M 290.5,577.5 C 290.117,589.03 288.45,600.364 285.5,611.5C 292.482,610.37 299.482,609.37 306.5,608.5C 299.446,610.709 292.112,612.042 284.5,612.5C 286.699,600.742 288.699,589.075 290.5,577.5 Z"/></g>
<g><path style="opacity:0.753" fill="#564f32" d="M 322.5,606.5 C 317.384,607.806 312.051,608.473 306.5,608.5C 311.598,607.043 316.931,606.376 322.5,606.5 Z"/></g>
<g><path style="opacity:0.769" fill="#534f40" d="M 191.5,639.5 C 191.5,639.167 191.5,638.833 191.5,638.5C 192.239,638.369 192.906,638.536 193.5,639C 211.754,656.752 229.421,674.918 246.5,693.5C 228.167,675.5 209.833,657.5 191.5,639.5 Z"/></g>
<g><path style="opacity:0.987" fill="#acacac" d="M 191.5,639.5 C 209.833,657.5 228.167,675.5 246.5,693.5C 249.5,695.833 252.167,698.5 254.5,701.5C 253.167,701.833 253.167,702.167 254.5,702.5C 222.007,735.826 189.007,768.66 155.5,801C 135.775,812.663 116.775,811.496 98.5,797.5C 82.1789,777.503 81.3455,756.836 96,735.5C 128.035,703.632 159.868,671.632 191.5,639.5 Z"/></g>
</svg>
