<?xml version="1.0" encoding="UTF-8"?>
<!DOCTYPE svg PUBLIC "-//W3C//DTD SVG 1.1//EN" "http://www.w3.org/Graphics/SVG/1.1/DTD/svg11.dtd">
<svg xmlns="http://www.w3.org/2000/svg" version="1.1" width="860px" height="832px" style="shape-rendering:geometricPrecision; text-rendering:geometricPrecision; image-rendering:optimizeQuality; fill-rule:evenodd; clip-rule:evenodd" xmlns:xlink="http://www.w3.org/1999/xlink">
<g><path style="opacity:0.989" fill="#ac900f" d="M 614.5,109.5 C 637.673,108.017 651.006,118.683 654.5,141.5C 654.08,149.261 651.58,156.261 647,162.5C 619.653,190.014 592.153,217.347 564.5,244.5C 572.557,274.236 572.224,303.902 563.5,333.5C 579.725,329.349 596.225,327.015 613,326.5C 625.286,327.092 637.453,328.259 649.5,330C 676.833,302.667 704.167,275.333 731.5,248C 746.415,237.799 761.081,238.132 775.5,249C 788.211,264.137 788.711,279.637 777,295.5C 755.833,316.667 734.667,337.833 713.5,359C 725.967,369.798 738.133,380.965 750,392.5C 758.997,403.051 759.33,413.717 751,424.5C 737.249,439.597 721.749,452.43 704.5,463C 665.323,482.454 625.656,483.454 585.5,466C 565.986,455.226 548.653,441.559 533.5,425C 532.833,424.333 532.167,424.333 531.5,425C 517.833,438.667 504.167,452.333 490.5,466C 525.512,470.348 556.512,483.681 583.5,506C 593.333,515.167 603.167,524.333 613,533.5C 620.443,544.075 620.109,554.408 612,564.5C 603.167,572.667 594.333,580.833 585.5,589C 543.208,620.654 497.541,626.321 448.5,606C 439.669,601.755 431.336,596.755 423.5,591C 413.833,582 404.167,573 394.5,564C 393.833,563.333 393.167,563.333 392.5,564C 378.471,577.695 364.804,591.695 351.5,606C 390.11,610.81 423.777,626.144 452.5,652C 459.667,659.167 466.833,666.333 474,673.5C 480.176,683.731 479.843,693.731 473,703.5C 460.562,717.11 446.729,728.944 431.5,739C 383.741,764.613 336.741,763.279 290.5,735C 277.767,725.273 265.934,714.439 255,702.5C 222.139,735.695 188.972,768.528 155.5,801C 135.775,812.663 116.775,811.496 98.5,797.5C 82.1789,777.503 81.3455,756.836 96,735.5C 128.014,703.653 159.847,671.653 191.5,639.5C 179.016,627.19 167.85,613.857 158,599.5C 135.553,558.138 134.219,516.138 154,473.5C 164.402,454.903 177.568,438.403 193.5,424C 203.833,416.667 214.167,416.667 224.5,424C 247.324,443.81 265.158,467.31 278,494.5C 283.957,509.705 288.29,525.372 291,541.5C 304.529,527.637 318.362,514.137 332.5,501C 282.017,457.545 267.85,404.378 290,341.5C 301.025,318.805 316.192,299.305 335.5,283C 345.001,278.124 354.335,278.458 363.5,284C 380.218,300.374 395.051,318.207 408,337.5C 419.309,357.426 426.642,378.759 430,401.5C 443.805,388.696 457.305,375.529 470.5,362C 451.005,345.184 436.171,325.018 426,301.5C 409.472,253.669 416.805,210.003 448,170.5C 456.869,159.964 466.702,150.464 477.5,142C 486.996,137.937 495.663,139.27 503.5,146C 514.525,157.256 525.191,168.756 535.5,180.5C 556.653,159.847 577.653,139.014 598.5,118C 603.493,114.339 608.827,111.506 614.5,109.5 Z"/></g>
<g><path style="opacity:0.96" fill="#ac900f" d="M 745.5,109.5 C 774.59,108.753 787.424,122.753 784,151.5C 781.839,156.492 779.172,161.159 776,165.5C 734.444,207.724 692.277,249.224 649.5,290C 631.063,298.766 615.896,294.933 604,278.5C 597.394,265.557 598.394,253.223 607,241.5C 647.472,200.028 688.306,158.861 729.5,118C 734.493,114.339 739.827,111.506 745.5,109.5 Z"/></g>
</svg>
